# xmcd
#
# Track frame offsets: 
#        150
#        10350
#        21456
#        32107
#        42837
#        53549
#        65520
#        79696
#        92691
#        104531
#        115419
#        127800
#        139882
#        151346
#        162203
#        173788
#        189186
#        201305
#        212725
#        228391
#        242264
#        254405
#        264966
#        274554
#        286851
#        298609
#        311468
#        325782
#        338823
#        348945
#        359511
#        370717
#
# Disc length: 5065 seconds
#
# Revision: 0
# Processed by: cddbd v1.5.2PL0 Copyright (c) Steve Scherf et al.
# Submitted via: ExactAudioCopy v0.99pb4
#
DISCID=cd13c720
DTITLE=Red Simpson - Hello, I'm Red Simpson - Disc 2
DYEAR=2012
DGENRE=Country
TTITLE0=You're Under Arrest
TTITLE1=County Sheriff
TTITLE2=Workin' For The Highway Patrol
TTITLE3=Johnny Law
TTITLE4=Sheriff Sam
TTITLE5=Bad Man Highway Patrol
TTITLE6=I'm Turning In My Star
TTITLE7=25 Years On Patrol
TTITLE8=Diesel Smoke, Dangerous Curves
TTITLE9=Black Smoke A-Blowin' Over 18 Wheels (That's Home Sweet Home)
TTITLE10=Truck Daddy
TTITLE11=I'll Be Goin' Home To Mamma
TTITLE12=A Tombstone Every Mile
TTITLE13=Piggyback Blues
TTITLE14=Take Me Home
TTITLE15=Born To Be A Trucker
TTITLE16=Jacknife
TTITLE17=Truck Drivin' Fool
TTITLE18=Sleeper, Five-By-Two
TTITLE19=Old Sam
TTITLE20=He Reminds Me A Whole Lot Of Me
TTITLE21=Party Girl
TTITLE22=Mini-Skirt Minnie
TTITLE23=Honky Tonk Women
TTITLE24=The Lonely Old House
TTITLE25=Happy Travelin' Man
TTITLE26=I'm A Truck
TTITLE27=Where Love Used To Be
TTITLE28=Knights Of The Road
TTITLE29=Drugstore Truck Driver
TTITLE30=Road Rhythm
TTITLE31=Motel Joe
EXTD=
EXTT0=
EXTT1=
EXTT2=
EXTT3=
EXTT4=
EXTT5=
EXTT6=
EXTT7=
EXTT8=
EXTT9=
EXTT10=
EXTT11=
EXTT12=
EXTT13=
EXTT14=
EXTT15=
EXTT16=
EXTT17=
EXTT18=
EXTT19=
EXTT20=
EXTT21=
EXTT22=
EXTT23=
EXTT24=
EXTT25=
EXTT26=
EXTT27=
EXTT28=
EXTT29=
EXTT30=
EXTT31=
PLAYORDER=
